<svg xmlns="http://www.w3.org/2000/svg" viewBox="0 0 512 512" role="img">
  <circle cx="256" cy="256" r="248" fill="#F4EFE6"/>
  <circle cx="256" cy="256" r="238" fill="none" stroke="#F5B301" stroke-width="14" opacity="0.28"/>

  <ellipse cx="256" cy="404" rx="110" ry="36" fill="#2947A8"/>
  <ellipse cx="256" cy="396" rx="110" ry="36" fill="#3E63DD"/>
  <path d="M176 398 C186 322 224 296 230 252 L282 252 C288 296 326 322 336 398 Z" fill="#3E63DD"/>
  <path d="M186 398 C226 380 286 380 326 398 L326 410 L186 410 Z" fill="#2947A8" opacity="0.25"/>
  <ellipse cx="256" cy="250" rx="58" ry="20" fill="#2947A8"/>
  <ellipse cx="256" cy="244" rx="58" ry="20" fill="#3E63DD"/>
  <circle cx="256" cy="192" r="76" fill="#3E63DD"/>
  <ellipse cx="222" cy="160" rx="26" ry="14" fill="#fff" opacity="0.5" transform="rotate(-20 222 160)"/>
  
  <circle cx="229" cy="186" r="17" fill="#fff"/>
  <circle cx="283" cy="186" r="17" fill="#fff"/>
  <circle cx="233" cy="190" r="8.5" fill="#16211C"/>
  <circle cx="287" cy="190" r="8.5" fill="#16211C"/>
  <circle cx="236" cy="186" r="3" fill="#fff"/>
  <circle cx="290" cy="186" r="3" fill="#fff"/>
  <path d="M228 218 Q256 238 284 218" fill="none" stroke="#16211C" stroke-width="9" stroke-linecap="round"/>
  <circle cx="204" cy="210" r="10" fill="#FF9D76" opacity="0.45"/>
  <circle cx="308" cy="210" r="10" fill="#FF9D76" opacity="0.45"/>
  <path d="M190 132 L206 74 L236 112 L256 60 L276 112 L306 74 L322 132 Z" fill="#F5B301" stroke="#B87E00" stroke-width="7" stroke-linejoin="round"/>
  <rect x="188" y="124" width="136" height="22" rx="11" fill="#F5B301" stroke="#B87E00" stroke-width="7"/>
  <circle cx="256" cy="135" r="8" fill="#E05555" stroke="#B87E00" stroke-width="4"/><circle cx="214" cy="135" r="6" fill="#2E9E6B" stroke="#B87E00" stroke-width="4"/><circle cx="298" cy="135" r="6" fill="#2E9E6B" stroke="#B87E00" stroke-width="4"/>
</svg>
